<?xml version="1.0" standalone="no"?>
<!DOCTYPE svg PUBLIC "-//W3C//DTD SVG 20010904//EN"
 "http://www.w3.org/TR/2001/REC-SVG-20010904/DTD/svg10.dtd">
<svg version="1.0" xmlns="http://www.w3.org/2000/svg"
 width="260.000000pt" height="260.000000pt" viewBox="0 0 260.000000 260.000000"
 preserveAspectRatio="xMidYMid meet">
<metadata>
Created by potrace 1.11, written by Peter Selinger 2001-2013
</metadata>
<g transform="translate(0.000000,260.000000) scale(0.100000,-0.100000)"
fill="#000000" stroke="none">
<path d="M1 1798 c0 -713 2 -798 15 -756 27 89 114 182 243 258 145 86 483
212 754 281 119 30 129 34 144 63 48 94 98 139 118 106 16 -27 -58 -122 -83
-106 -6 3 -18 -7 -28 -22 -13 -20 -14 -24 -2 -14 20 16 161 46 313 67 167 22
169 23 155 40 -6 8 -9 19 -5 25 12 20 -12 10 -35 -15 -14 -15 -34 -25 -49 -24
-14 0 -35 -1 -46 -3 -16 -2 -19 2 -18 20 4 31 -9 28 -36 -9 -18 -24 -29 -30
-47 -26 -14 2 -27 0 -30 -4 -3 -5 -14 -9 -25 -9 -13 0 -19 7 -19 23 -1 21 -2
21 -25 -8 -30 -37 -42 -28 -20 17 32 62 149 231 153 219 2 -6 -16 -39 -40 -74
-63 -89 -65 -91 -39 -78 28 15 28 0 0 -46 -28 -45 -16 -54 18 -13 65 75 82 90
98 84 9 -4 14 -13 11 -20 -10 -27 19 -13 42 19 l22 32 -25 3 c-34 4 -22 22 15
22 19 0 36 10 55 31 14 17 29 29 32 25 3 -3 -2 -15 -13 -27 l-19 -21 38 7 c23
5 37 3 37 -3 0 -5 -21 -14 -47 -18 -41 -8 -50 -15 -84 -64 -21 -30 -39 -58
-39 -62 0 -21 22 -3 54 42 27 38 42 50 62 50 21 0 25 -4 21 -20 -7 -26 -2 -25
37 5 39 29 52 31 60 8 4 -10 -3 -26 -21 -45 -15 -15 -22 -28 -17 -28 14 0 74
63 74 77 0 17 15 24 34 17 22 -8 20 -20 -10 -60 -38 -50 -15 -42 29 10 40 49
75 66 88 45 5 -8 -2 -24 -17 -42 -39 -46 -18 -45 29 1 47 46 87 56 87 21 0
-11 -14 -34 -30 -51 -25 -25 -36 -29 -60 -24 -17 3 -30 2 -30 -2 0 -4 55 -13
123 -20 152 -14 258 -41 366 -94 119 -57 196 -132 222 -218 4 -14 8 253 8 593
l1 617 -1300 0 -1300 0 1 -802z m2172 98 c-66 -54 -120 -109 -95 -96 37 18 39
3 4 -33 -18 -18 -32 -36 -32 -40 0 -11 40 12 78 44 36 32 72 38 72 13 0 -8
-20 -24 -47 -37 -38 -17 -44 -22 -26 -25 24 -4 66 16 103 48 21 18 25 19 28 6
2 -9 8 -16 13 -16 16 0 10 -18 -8 -24 -10 -4 -29 -15 -43 -26 l-25 -21 30 6
c27 5 28 4 8 -6 -12 -6 -30 -8 -40 -5 -16 7 -14 11 15 37 39 35 31 37 -23 4
-40 -25 -79 -32 -89 -17 -3 5 -19 7 -37 4 -30 -4 -32 -3 -25 23 l7 27 -30 -21
c-32 -23 -41 -26 -41 -11 0 14 223 209 233 203 5 -3 -8 -19 -30 -37z m-1274
-142 c-11 -14 -8 -15 27 -9 47 9 37 -7 -17 -24 -35 -11 -46 -26 -85 -118 -9
-22 -11 -33 -4 -33 6 0 22 25 36 56 28 64 45 67 20 3 -9 -23 -14 -44 -11 -47
8 -8 45 29 45 45 0 23 30 74 40 68 6 -4 1 -23 -10 -46 -11 -21 -16 -39 -11
-39 5 0 21 25 36 55 28 61 38 69 33 28 -2 -15 2 -28 10 -30 6 -3 12 2 12 10 0
20 48 69 60 62 16 -10 12 -22 -21 -60 -36 -40 -32 -56 6 -31 26 17 26 17 16
-3 -17 -31 -52 -38 -69 -12 -20 29 -34 26 -54 -9 -10 -17 -25 -30 -36 -30 -11
0 -25 -7 -32 -15 -7 -9 -21 -13 -31 -10 -9 3 -20 1 -24 -5 -11 -18 -35 -11
-35 10 0 29 -12 24 -35 -13 -12 -18 -29 -32 -40 -32 -11 0 -24 -6 -28 -12 -10
-15 -47 -17 -47 -3 0 18 -18 11 -25 -10 -9 -29 -38 -27 -31 3 4 13 -1 9 -11
-10 -20 -39 -37 -43 -31 -8 7 37 -9 30 -26 -10 -8 -19 -23 -38 -33 -41 -10 -3
-26 -10 -35 -15 -10 -5 -25 -9 -33 -9 -8 0 -15 -4 -15 -10 0 -5 -7 -10 -15
-10 -17 0 -50 -17 -77 -39 -10 -8 -18 -10 -18 -6 0 5 -6 1 -13 -10 -23 -30
-40 -9 -34 42 5 51 39 95 58 76 7 -7 8 -22 0 -49 -6 -21 -8 -40 -6 -42 6 -7
23 38 30 81 3 20 11 37 17 37 10 0 9 -7 -8 -67 -4 -13 -2 -23 3 -23 5 0 17 25
27 55 9 30 21 55 27 55 12 0 12 0 -6 -49 -8 -22 -10 -41 -5 -41 13 0 21 15 35
68 7 26 16 55 20 66 7 16 6 17 -14 7 -12 -7 -27 -10 -34 -8 -7 2 5 12 25 22
26 13 41 29 49 52 12 39 32 45 23 7 l-7 -26 32 16 c17 9 31 12 31 6 0 -5 -18
-19 -40 -30 -35 -18 -41 -27 -60 -87 -19 -63 -20 -88 -1 -67 5 5 14 27 21 49
14 45 37 75 57 75 7 0 13 -7 13 -15 0 -25 20 -17 32 13 10 23 12 24 16 8 4
-18 5 -18 24 5 15 18 21 21 25 10 4 -11 10 -8 24 10 25 33 33 18 15 -26 -9
-21 -16 -42 -16 -47 0 -20 33 18 50 57 28 65 80 97 80 49 0 -23 18 -7 40 36
l20 40 -26 -10 c-31 -12 -34 -12 -34 -1 0 5 15 15 34 21 23 7 42 24 57 48 13
22 24 32 26 24 3 -7 -1 -20 -8 -28z m11 -54 c0 -5 -4 -10 -10 -10 -5 0 -10 5
-10 10 0 6 5 10 10 10 6 0 10 -4 10 -10z"/>
<path d="M2144 1764 c-18 -14 -18 -14 6 -3 31 14 36 19 24 19 -6 0 -19 -7 -30
-16z"/>
<path d="M1050 1695 c-7 -9 -11 -17 -9 -20 3 -2 10 5 17 15 14 24 10 26 -8 5z"/>
<path d="M731 1578 c-6 -17 -8 -34 -5 -37 8 -9 34 30 34 51 0 29 -17 21 -29
-14z"/>
<path d="M490 1496 c-12 -33 -13 -46 -2 -46 15 0 34 52 23 63 -7 7 -14 1 -21
-17z"/>
<path d="M275 1407 c-18 -43 -20 -76 -4 -60 12 12 31 85 24 92 -3 2 -12 -12
-20 -32z"/>
<path d="M1835 1779 c-37 -45 -21 -50 23 -6 26 26 32 37 20 37 -9 0 -28 -14
-43 -31z"/>
<path d="M1665 1770 c-16 -16 -26 -33 -22 -36 8 -9 23 2 47 36 28 39 12 39
-25 0z"/>
<path d="M1729 1748 l-45 -48 34 0 c28 0 32 3 27 18 -3 11 3 30 16 46 35 45
17 36 -32 -16z"/>
<path d="M1938 1777 c-27 -22 -37 -47 -20 -47 10 0 62 53 62 63 0 12 -14 7
-42 -16z"/>
<path d="M1562 1755 c-28 -35 -28 -49 -1 -35 22 12 33 33 27 51 -2 7 -13 1
-26 -16z"/>
<path d="M1407 1730 c-16 -26 -16 -30 -3 -30 15 0 36 29 36 49 0 20 -16 11
-33 -19z"/>
<path d="M1227 1721 c-27 -32 -35 -61 -18 -61 13 0 53 68 49 81 -2 7 -16 -3
-31 -20z"/>
<path d="M1767 1718 c-7 -4 3 -8 26 -8 20 0 40 0 44 -1 4 0 9 3 10 8 4 11 -63
12 -80 1z"/>
<path d="M1809 1673 c-13 -16 -12 -17 4 -4 16 13 21 21 13 21 -2 0 -10 -8 -17
-17z"/>
<path d="M1578 1652 c-18 -17 -29 -34 -25 -38 4 -4 22 6 39 24 42 41 30 52
-14 14z"/>
<path d="M1829 1663 c-13 -16 -12 -17 4 -4 9 7 17 15 17 17 0 8 -8 3 -21 -13z"/>
<path d="M1780 1628 c0 -14 -15 -17 -97 -21 -175 -8 -246 -16 -396 -42 -82
-14 -152 -23 -157 -20 -4 3 -10 1 -12 -3 -1 -4 -73 -25 -158 -46 -278 -67
-570 -174 -724 -264 -173 -102 -245 -262 -172 -386 46 -79 153 -140 278 -160
76 -12 95 -31 21 -21 -190 26 -315 109 -354 235 -4 14 -8 -183 -8 -437 l-1
-463 1300 0 1300 0 0 643 0 642 -24 -58 c-14 -32 -37 -77 -52 -99 -42 -60
-171 -177 -269 -243 l-88 -59 37 -33 36 -33 -99 0 c-54 0 -114 -3 -132 -7
l-33 -6 34 43 c19 24 51 75 71 114 36 68 38 70 44 41 3 -17 9 -42 13 -57 l7
-28 100 84 c101 84 199 196 236 268 11 22 23 61 26 88 5 41 1 56 -20 93 -70
120 -339 216 -609 217 -63 0 -79 3 -87 18 -10 15 -10 16 -11 0z m307 -95 c2
-6 -21 -22 -51 -36 -72 -33 -209 -165 -259 -248 -43 -74 -47 -99 -15 -99 31 0
120 95 205 221 40 59 79 109 88 113 48 18 1 -89 -59 -137 -19 -15 -49 -49 -67
-75 -41 -60 -126 -149 -161 -168 -32 -17 -70 -18 -85 -3 -8 8 -19 5 -42 -12
-36 -27 -116 -33 -131 -9 -16 24 -3 58 76 192 73 125 83 148 65 148 -20 0
-142 -145 -207 -246 -38 -59 -79 -117 -91 -130 -22 -24 -63 -33 -63 -15 0 5
26 54 58 108 137 232 155 277 97 239 -32 -21 -95 -106 -188 -254 -68 -108
-103 -142 -128 -126 -6 3 -1 21 12 42 48 81 149 285 149 303 0 27 -41 25 -67
-3 -31 -34 -43 -63 -43 -102 0 -25 -6 -38 -20 -46 -51 -27 -35 87 23 163 44
58 129 86 157 52 10 -12 9 -27 -7 -75 -11 -33 -19 -59 -18 -57 1 1 24 29 50
62 74 94 125 132 160 119 24 -9 18 -52 -16 -113 l-32 -56 34 40 c104 123 154
165 197 165 50 0 36 -47 -65 -222 -40 -70 -73 -134 -73 -143 0 -24 53 -18 84
10 14 13 26 31 26 40 0 48 117 205 204 274 106 85 192 120 203 84z m-950 -159
c2 -6 -22 -24 -54 -40 -108 -52 -283 -251 -283 -321 0 -70 100 20 217 193 42
62 83 116 91 119 36 14 30 -16 -19 -101 -52 -91 -109 -199 -109 -209 0 -16 48
-1 72 22 26 25 28 25 28 7 0 -43 -92 -94 -140 -79 -24 8 -25 15 -5 63 l16 37
-31 -36 c-59 -72 -164 -122 -185 -89 -4 7 -18 4 -38 -9 -18 -10 -51 -24 -74
-30 -30 -8 -47 -21 -62 -44 -45 -72 -131 -135 -160 -117 -23 13 -2 47 64 107
42 38 76 82 101 128 l38 70 -67 -72 c-67 -71 -144 -120 -172 -109 -29 11 -14
60 54 186 38 70 72 137 76 149 8 26 -14 37 -44 22 -27 -15 -73 -95 -80 -140
-7 -38 -27 -47 -44 -20 -26 41 30 148 102 196 37 25 105 31 117 11 22 -35 -12
-134 -90 -268 -20 -34 -34 -65 -31 -68 12 -12 59 25 109 87 61 75 182 253 191
281 7 23 43 36 58 21 8 -8 -15 -63 -81 -197 l-93 -187 33 7 c50 10 77 35 102
98 13 31 39 79 59 106 104 141 315 284 334 226z m837 -101 c-36 -66 -74 -117
-81 -109 -10 9 99 176 115 176 2 0 -13 -30 -34 -67z m56 -69 c0 -3 -5 -14 -11
-26 -18 -34 -139 -77 -139 -49 0 13 47 41 69 41 10 0 29 9 42 20 24 19 39 25
39 14z"/>
</g>
</svg>
