<?xml version="1.0" encoding="utf-8"?>
<!-- Generator: Adobe Illustrator 23.0.6, SVG Export Plug-In . SVG Version: 6.00 Build 0)  -->
<svg version="1.1" id="レイヤー_1" xmlns="http://www.w3.org/2000/svg" xmlns:xlink="http://www.w3.org/1999/xlink" x="0px"
	 y="0px" viewBox="0 0 1920 1080" style="enable-background:new 0 0 1920 1080;" xml:space="preserve">
<style type="text/css">
	.st0{fill-rule:evenodd;clip-rule:evenodd;}
	.st1{fill:#040000;stroke:#040000;stroke-miterlimit:10;}
	.st2{font-family:'HGPSoeiKakugothicUB';}
	.st3{font-size:70px;}
</style>
<path class="st0" d="M557.18,615.12c0.31-0.61,0.78-1.2,0.91-1.85c1.62-8.34,6.25-14.81,12.76-19.94
	c7.92-6.24,17.05-9.54,27.08-10.35c0.78-0.06,1.58,0,2.36,0.03c0.33,0.01,0.65,0.08,1.56,0.2c-1.05,0.51-1.61,0.83-2.2,1.07
	c-5.52,2.24-11.07,4.39-16.55,6.71c-4.78,2.02-9.28,4.56-13.12,8.13c-3.35,3.12-5.81,6.8-6.76,11.33
	c-0.78,3.76-0.53,7.51,0.52,11.19c2.94,10.32,9.08,18.47,17.25,25.21c4.89,4.04,10.34,7.21,16.01,10.01
	c13.29,6.58,27.18,11.69,41.13,16.62c5.36,1.88,10.84,3.43,16.33,4.91c2.26,0.61,4.68,0.58,7.01,0.96c2.49,0.41,5.06,0.68,7.42,1.51
	c8.52,2.99,17.23,3.72,26.17,2.93c9.77-0.87,19.56-1.54,29.35-2.23c1.48-0.1,1.8-0.67,1.36-2.24c-3.2-0.06-6.43-0.27-9.65-0.17
	c-19.56,0.63-38.89-0.86-57.8-6.15c-17.69-4.95-34.14-12.62-49.33-22.96c-6.36-4.33-11.8-9.65-16.16-16.02
	c-3.47-5.08-5.41-10.57-4.71-16.83c0.39-3.48,1.57-6.66,3.61-9.47c1.48-2.05,3.11-4.03,4.87-5.85c2.62-2.71,5.14-3.14,8.6-1.52
	c2.37,1.11,4.62,2.5,6.94,3.74c0.82,0.44,1.68,0.8,2.99,1.43c-0.28-1.07-0.37-1.63-0.56-2.14c-1.08-2.87-2.17-5.73-3.3-8.59
	c-0.99-2.51-0.95-4.9,0.41-7.32c1.79-3.2,3.42-6.48,5.22-9.9c3.8,2.07,7.4,4.03,11.21,6.11c1.03-1.78,2.02-3.49,3-5.18
	c0.13,0.02,0.26,0.01,0.29,0.06c2.82,3.99,6.77,5.21,11.47,4.94c3.06-0.18,6.14-0.1,9.2-0.02c3.3,0.09,6.48-0.16,9.37-2.29
	c2.84,2.25,6.15,2.35,9.52,2.29c3.51-0.06,7.02,0.09,10.52-0.06c1.81-0.08,3.59-0.63,5.38-0.93c0.74-0.12,1.5-0.25,2.23-0.18
	c3.48,0.35,6.94,1.03,10.42,1.09c6.31,0.1,12.62-0.05,18.92-0.32c4.31-0.18,8.2-1.74,11.48-4.6c0.19,0.07,0.41,0.08,0.48,0.2
	c2.48,3.56,5.94,4.93,10.2,4.81c4.03-0.12,8.07-0.08,12.1-0.01c4.06,0.08,7.39-1.21,9.72-4.67c0.14-0.2,0.37-0.34,0.66-0.6
	c2.61,2.13,5.45,3.83,8.79,4.43c2.07,0.37,4.16,0.74,6.25,0.78c6.14,0.1,12.28,0.15,18.41-0.02c2.6-0.07,5.26-0.46,7.77-1.14
	c4.76-1.31,8.36-4.28,10.92-9.3c0.15,0.98,0.21,1.34,0.26,1.7c0.72,4.99,4.3,8.67,9.34,8.71c10.69,0.09,21.38-0.18,32.07-0.31
	c0.09,0,0.18,0,0.26-0.02c1.86-0.47,3.73-1.34,5.58-1.3c1.73,0.03,3.42,1.11,5.17,1.56c0.91,0.24,1.91,0.16,2.87,0.16
	c8.07,0.01,16.13,0.01,24.2,0.01c5.4,0,6.5-0.4,10.53-3.93c0.83,0.7,1.64,1.48,2.54,2.13c1.85,1.31,3.96,1.8,6.21,1.8
	c3.95-0.01,7.89-0.06,11.84,0.02c3.03,0.07,5.95-0.19,8.55-1.94c2.45,1.6,5.08,2.01,7.86,1.94c3.33-0.08,6.67-0.09,10,0
	c3.3,0.09,6.48-0.16,9.33-2.26c2.82,2.07,6,2.29,9.29,2.27c9.29-0.07,18.57,0.02,27.86-0.03c11.73-0.06,23.45,0.08,35.18,0
	c1.13-0.01,2.29-0.03,3.39-0.28c2.09-0.48,4.04-0.08,5.84,0.89c5.47,2.96,10.92,5.97,16.34,9.01c3.34,1.88,5.44,4.9,7.17,8.2
	c2.91,5.57,6.58,10.57,11.3,14.73c1.9,1.68,4.02,3.11,6.01,4.69c0.91,0.72,1.84,0.83,2.95,0.57c9.36-2.25,18.89-2.77,28.47-2.44
	c5.56,0.2,10.99,1.24,16.02,3.69c9.86,4.8,15.22,12.6,15.49,23.7c0.01,0.61,0,1.22,0,2.12c1.46,0.72,2.98,1.56,4.58,2.19
	c0.54,0.22,1.36,0.03,1.95-0.22c5.73-2.38,11.67-3.71,17.87-3.9c6.44-0.2,12.55,1.03,18.23,4.14c9.32,5.11,13.43,13.78,11.54,24.26
	c-0.09,0.51-0.13,1.03-0.21,1.65c0.45,0.31,0.85,0.63,1.28,0.89c10.99,6.54,22.02,13.03,32.95,19.67c2.02,1.23,3.86,1.59,6.15,1.18
	c6.75-1.2,13.57-1.68,20.42-1.52c5.15,0.12,10.1,1.15,14.68,3.55c8.62,4.51,13.46,11.75,15.1,21.24c1.18,6.82,0.1,13.44-1.87,19.97
	c-0.25,0.84-0.51,1.67-0.75,2.51c-0.05,0.16-0.01,0.34-0.01,0.82c0.97,0.44,2.04,0.92,3.3,1.49c0.73-1.63,1.37-3.05,2-4.48
	c2.65-6.03,5.62-11.87,9.24-17.39c9.71-14.8,23.5-23.21,40.8-26.13c11.39-1.92,22.87-2.16,34.33-0.95c4.07,0.43,8.15,1.3,12.06,2.51
	c13.23,4.09,19.25,14,18.53,27.37c-0.38,7.12-1.61,14.1-4.1,20.81c-0.09,0.23-0.1,0.49-0.17,0.87c0.6,0.21,1.15,0.41,1.71,0.6
	c2.37,0.83,4.39,2.16,5.96,4.14c2.45,3.09,4.94,6.15,7.36,9.27c3.4,4.38,3.8,9.14,1.37,14.06c-3.38,6.85-8.13,12.68-13.74,17.81
	c-1.5,1.38-2.14,2.76-2.04,4.77c0.14,2.88,0.04,5.77,0.04,9.1c-1.56-0.44-2.85-0.81-4.15-1.18c-2.35-0.66-4.8-2.03-7.04-1.76
	c-2.13,0.25-4.06,2.21-6.06,3.45c-10.9,6.69-22.36,12.02-34.97,14.61c-10.81,2.22-21.73,2.63-32.71,2.12
	c-5.69-0.26-11.38-0.45-16.99-1.66c-8.49-1.83-15.88-5.44-21.18-12.61c-0.09-0.13-0.3-0.17-0.63-0.34
	c-0.74,0.38-1.59,0.79-2.42,1.23c-10.48,5.61-21.4,10.04-33.12,12.28c-7.1,1.36-14.25,1.95-21.4,0.27c-5.97-1.4-11.07-4.3-15.08-9
	c-0.34-0.4-0.7-0.78-1.06-1.16c-0.04-0.04-0.14-0.03-0.42-0.08c-0.46,0.96-0.93,1.97-1.42,2.98c-2.32,4.78-6.09,7.4-11.44,7.41
	c-13.5,0.05-27.01,0-40.51,0.03c-4.81,0.01-8.35-2.2-11.11-6.19c-0.65,0.19-1.31,0.35-1.93,0.58c-6.72,2.57-13.57,4.71-20.72,5.7
	c-5.84,0.81-11.69,1.2-17.51-0.21c-8.44-2.04-14.98-6.62-19.15-14.36c-0.17-0.3-0.35-0.6-0.66-1.11c-2.51,0.27-5.09,0.56-7.84,0.86
	c-2.26,10.1-7.32,19.08-11.37,28.46c-6.94,16.1-19.31,25.7-36.15,29.63c-11.21,2.61-22.56,3.02-33.91,0.67
	c-4.59-0.95-8.91-2.63-12.74-5.38c-8.05-5.79-11.84-13.86-12.26-23.61c-0.23-5.31,0.76-10.47,2.28-15.53
	c0.25-0.84,0.5-1.67,0.82-2.72c-0.59,0-1.09-0.11-1.52,0.02c-12.69,3.71-25.7,4.4-38.8,3.88c-6.12-0.24-12.26-0.43-18.29-1.8
	c-7.26-1.65-13.77-4.61-18.87-10.21c-0.17-0.19-0.42-0.3-0.76-0.54c-0.96,0.48-1.98,0.97-2.98,1.47
	c-8.88,4.47-18.07,8.05-27.86,9.96c-7.82,1.52-15.69,2.05-23.42-0.33c-9.97-3.06-16.98-9.33-19.8-19.6
	c-1.67-6.07-0.88-12.19,0.5-18.22c1.51-6.63,4.42-12.73,7.53-18.73c2.58-4.98,5.33-9.87,7.85-14.88c2.4-4.78,4.53-9.68,5.61-14.97
	c0.12-0.6,0.22-1.21,0.28-1.81c0.03-0.33-0.05-0.68-0.09-1.12c-1.3,0.22-1.35,1.35-1.7,2.13c-4.33,9.68-8.62,19.37-12.93,29.05
	c-7.4,16.65-14.8,33.31-22.2,49.96c-0.32,0.72-0.62,1.46-1,2.14c-2.35,4.24-5.88,6.75-10.79,6.77c-14.29,0.07-28.59,0.12-42.88-0.01
	c-8.36-0.08-14.04-8.23-11.54-16.23c0.36-1.17,0.89-2.28,1.38-3.4c20.98-47.34,41.97-94.68,62.94-142.01
	c0.35-0.78,0.66-1.58,1.06-2.55c-6.5-1.33-11.63-4.37-14.4-10.47c-2.66-5.85-2.3-11.75,0.11-17.81c-0.6-0.32-1.17-0.69-1.78-0.95
	c-4.1-1.76-8.22-3.5-12.33-5.24c-2.88-1.21-5.86-1.66-9.11-1.13c-0.63,2.96-0.18,5.78,0.73,8.55c1.48,4.45,2.28,9,2.09,13.7
	c-0.41,10.47-4.86,18.89-13.18,25.19c-6.29,4.76-13.49,7.75-20.94,10.17c-9.81,3.19-19.9,4.89-30.19,5.34
	c-36.54,1.61-71.49-4.94-104.64-20.62c-11.42-5.4-21.86-12.21-30.69-21.36c-5.58-5.77-9.97-12.2-11.88-20.13
	c-0.19-0.77-0.79-1.44-1.2-2.15V615.12z M945.72,777.02c6.65-0.84,13.1-1.5,19.5-2.51c8.85-1.4,17.47-3.66,25.54-7.73
	c5.52-2.78,10.01-6.67,13.57-11.75c6.61-9.44,8.94-20.12,8.79-31.36c-0.11-8.22-4.42-13.85-12.21-16.62
	c-2.3-0.82-4.68-1.53-7.08-1.92c-13.28-2.14-26.57-1.94-39.75,0.63c-14.67,2.86-26.15,10.61-34.12,23.36
	c-1.76,2.82-3.53,5.67-4.91,8.69c-4.7,10.27-9.22,20.63-13.84,30.95c-0.42,0.93-0.88,1.98-1.63,2.61c-4.45,3.74-9.26,6.94-14.64,9.2
	c-1,0.42-2.09,0.61-3.62,1.05c0.66-1.82,1.03-3.17,1.63-4.4c2.04-4.17,4.13-8.32,6.27-12.44c3.64-7,7.17-14.05,9.66-21.56
	c1.44-4.37,2.28-8.82,1.94-13.44c-0.45-6.16-3.11-11.05-8.37-14.43c-0.54-0.34-1.06-0.71-1.59-1.06c0.19-0.26,0.23-0.35,0.29-0.39
	c0.67-0.41,1.35-0.81,2.02-1.21c15.03-8.94,27-20.84,35.14-36.42c4.13-7.9,6.49-16.25,6.08-25.25c-0.52-11.19-6.3-19.11-16.91-22.6
	c-3.46-1.14-7.15-1.72-10.78-2.2c-6.29-0.83-12.61-0.42-18.91,0.04c-8.32,0.61-16.21,2.77-23.51,6.89
	c-0.52,0.29-1.08,0.52-1.65,0.79c-4.22-3.36-9.09-5.06-14.2-6.03c-10.12-1.93-20.35-2.4-30.63-1.93c-3.95,0.18-7.88,0.51-11.66,1.78
	c-5.47,1.84-9.28,5.4-10.37,11.18c-1.6,8.52,2.93,14.64,11.63,15.09c1.57,0.08,3.16-0.01,4.73,0.06c0.92,0.04,1.84,0.23,3.11,0.41
	c-0.61,1.44-1.07,2.55-1.56,3.64c-22.09,49.82-44.18,99.63-66.26,149.45c-0.5,1.12-1.04,2.23-1.41,3.39
	c-1.13,3.48,1.14,6.85,4.78,7.18c0.7,0.06,1.4,0.02,2.1,0.02h38.67c0.61,0,1.23,0.02,1.84-0.01c2.1-0.12,3.65-1.14,4.66-2.96
	c0.42-0.76,0.74-1.59,1.09-2.39c12.31-27.7,24.61-55.4,36.92-83.1c0.42-0.94,0.88-1.86,1.48-3.11c3.08,0.84,6.07,1.48,8.94,2.49
	c2.68,0.93,3.22,1.96,3.13,4.78c-0.1,3.43-0.71,6.78-1.77,10.06c-2.26,6.95-5.56,13.42-9,19.84c-2.73,5.09-5.34,10.26-7.8,15.49
	c-2.6,5.52-4.02,11.38-4.26,17.51c-0.24,6.22,1.74,11.52,6.37,15.78c3.25,2.99,7.09,4.82,11.39,5.65c6.66,1.29,13.27,0.69,19.82-0.8
	c10.77-2.45,20.77-6.81,30.3-12.31c0.8-0.46,1.61-0.88,2.51-1.37c2.99,6.26,7.74,10.14,13.93,12.05c3.74,1.15,7.65,1.99,11.54,2.36
	c5.58,0.53,11.2,0.56,16.81,0.7c15.58,0.38,30.52-2.37,44.56-9.34c0.58-0.29,1.2-0.49,2.24-0.92c-0.5,1.25-0.8,2.04-1.13,2.82
	c-1.72,4.03-3.58,8-5.16,12.08c-2.3,5.94-3.54,12.11-2.94,18.53c0.41,4.38,1.87,8.35,4.61,11.83c3.83,4.87,9.05,7.4,14.97,8.54
	c10.48,2.01,20.94,1.61,31.29-0.93c14.27-3.51,24.61-11.78,30.48-25.42c2.18-5.07,4.54-10.06,6.81-15.09
	c1.92-4.25,3.41-8.64,4.27-13.23c0.25-1.37,0.45-2.74,0.72-4.34c6.43,0.29,12.61-0.6,18.59-2.4c0.18,0.41,0.28,0.56,0.31,0.73
	c1.96,9.43,8.02,14.68,17.17,16.61c5.4,1.14,10.83,0.59,16.2-0.37c9.21-1.63,17.85-5,26.27-8.96c0.58-0.27,1.19-0.48,2.15-0.86
	c-0.44,1.16-0.74,1.87-0.98,2.59c-1.25,3.75,1.07,7.22,4.99,7.46c0.52,0.03,1.05,0.01,1.58,0.01c12.54,0,25.08-0.07,37.62,0.05
	c3.55,0.03,5.73-1.29,7.11-4.57c2.89-6.87,5.97-13.64,8.99-20.45c0.34-0.77,0.74-1.51,1.12-2.26c0.08,1.37-0.15,2.56-0.34,3.77
	c-1.84,11.2,4.96,21.21,16.05,23.48c6.74,1.38,13.45,0.68,20.08-0.8c12.78-2.85,24.56-8.14,35.68-14.98
	c0.79-0.48,1.59-0.94,2.44-1.43c0.25,0.5,0.44,0.8,0.55,1.12c2.12,6.34,6.55,10.43,12.56,12.99c4.31,1.85,8.85,2.82,13.51,3.09
	c5.77,0.34,11.56,0.58,17.34,0.66c10.57,0.15,21.01-0.94,31.11-4.24c15.99-5.23,29.99-13.92,42.54-24.97
	c4.96-4.36,9-9.55,12.09-15.46c1.39-2.65,1.21-4.99-0.69-7.3c-2.17-2.64-4.43-5.23-6.36-8.05c-2.83-4.12-8.23-3.48-10.29,0.58
	c-1.87,3.7-4.75,6.72-7.8,9.52c-5.6,5.13-11.88,9.26-18.68,12.6c-10.82,5.32-22.22,8.51-34.3,9.1c-1.99,0.1-4.01,0.32-6.16-0.64
	c0.28-4.83,2.45-9,4.16-12.98c6.77-0.86,13.22-1.5,19.62-2.52c8.94-1.42,17.65-3.72,25.76-7.89c5-2.57,9.18-6.05,12.52-10.61
	c7.33-10,9.9-21.38,9.39-33.5c-0.28-6.51-3.6-11.4-9.56-14.36c-3.09-1.54-6.36-2.51-9.74-3.04c-13.29-2.09-26.57-1.86-39.75,0.69
	c-9.74,1.88-18.43,6.09-25.66,13.03c-5.52,5.29-9.66,11.58-12.96,18.4c-3.51,7.26-6.67,14.68-10.07,21.99
	c-0.76,1.64-1.72,3.28-2.92,4.63c-6.19,6.98-13.54,12.42-22.03,16.3c-1.15,0.53-2.39,0.87-4.22,1.52c2.42-5.41,4.5-10.2,6.69-14.95
	c4.07-8.83,8.17-17.65,11.06-26.97c1.42-4.55,2.28-9.17,2.06-13.97c-0.56-12.32-8.68-20.95-21.02-21.7
	c-5.48-0.33-11.02,0.18-16.52,0.5c-6.93,0.42-13.47,2.21-19.24,6.26c-0.13,0.09-0.33,0.08-0.63,0.15c-0.85-0.43-1.79-0.88-2.72-1.37
	c-5.98-3.12-11.95-6.26-17.93-9.38c-0.62-0.32-1.23-0.68-1.89-0.92c-2.69-0.99-5.35-0.03-6.76,2.45c-0.48,0.83-0.84,1.74-1.23,2.62
	c-7.96,17.94-15.89,35.89-23.91,53.8c-0.85,1.89-1.99,3.74-3.35,5.3c-6.18,7.1-13.59,12.62-22.15,16.55
	c-1.15,0.53-2.38,0.87-4.03,1.46c0.47-1.22,0.71-1.94,1.01-2.63c4.9-11.06,9.8-22.11,14.7-33.16c3.16-7.13,6.33-14.25,9.47-21.39
	c1.73-3.94,0.88-6.39-2.9-8.52c-0.08-0.04-0.15-0.08-0.23-0.12c-9.45-5.17-18.9-10.35-28.36-15.51c-0.61-0.33-1.23-0.67-1.89-0.91
	c-2.48-0.88-5.01-0.03-6.43,2.18c-0.42,0.66-0.71,1.4-1.03,2.12c-7.75,17.36-15.54,34.7-23.22,52.09
	c-2.55,5.76-6.35,10.47-11.31,14.26c-3.88,2.96-8.15,5.15-13.06,5.81c-4.05,0.54-6.54-0.94-8.35-4.84c2.2-1.68,4.53-3.24,6.62-5.07
	c11.58-10.13,20.69-22.19,27.09-36.14c10.45-22.78,20.56-45.7,30.81-68.57c1.69-3.78,2.84-7.72,3.39-11.83
	c1.09-8.02-2.44-15.28-9.43-19.34c-3.86-2.24-8.07-3.35-12.48-3.76c-9.32-0.87-18.58-0.2-27.72,1.66
	c-8.69,1.78-16.81,4.91-23.53,10.99c-5.76,5.21-9.8,11.61-12.94,18.65c-14.66,32.89-29.42,65.74-43.98,98.67
	c-2.45,5.54-5.95,10.07-10.44,13.95c-7.37,6.37-15.68,11.17-24.74,14.68c-9.31,3.61-18.92,5.76-28.93,5.91
	c-1.35,0.02-2.7-0.25-4-0.38C941.68,786.71,942.85,782.95,945.72,777.02 M1172.5,653.48c-9.01,0.18-17.2,2.9-24.52,8.13
	c-3.82,2.73-7.01,6.08-9.08,10.37c-4.05,8.39-1.37,16.36,6.92,20.56c5.75,2.91,11.82,3.56,18.14,2.64
	c7.75-1.13,14.95-3.64,21.26-8.37c3.7-2.77,6.74-6.13,8.38-10.56c2.99-8.11,0.17-15.54-7.43-19.59
	C1181.89,654.4,1177.33,653.41,1172.5,653.48 M902.68,715.11c4.46,5.87,5.59,12.53,5.64,19.63c8.95-18.08,22.14-30.86,42.2-35.87
	c-7.43-2.91-14.86-5.81-22.33-8.74C921.09,700.07,912.6,708.19,902.68,715.11 M1169.87,739.46c-3.64,8.22-7.12,16.07-10.6,23.92
	c0.15,0.09,0.3,0.18,0.45,0.27c2.21-2.08,4.73-3.99,6.1-6.73c2.54-5.06,4.71-10.31,7.13-15.67
	C1171.91,740.66,1171.04,740.15,1169.87,739.46 M1016.65,710.5c0.98,2.2,1.84,4.11,2.85,6.39c1.49-3.22,2.82-6.06,4.22-9.56
	C1020.96,708.57,1018.85,709.51,1016.65,710.5"/>
<path class="st0" d="M651.36,437.81c2.05,0.33,4.09,0.72,6.15,0.96c23.87,2.77,46.28,10.08,67.35,21.57
	c9.67,5.27,18.52,11.68,26.25,19.57c3.89,3.97,7.16,8.38,9.61,13.4c1.93,3.95,2.82,8.08,2.52,12.47c-0.04,0.68-0.01,1.37-0.01,2.49
	c0.7-0.75,1.17-1.2,1.57-1.7c4.37-5.55,9.56-10.25,15.07-14.61c5.77-4.56,11.97-5.09,18.39-1.55c4.21,2.33,8.25,4.97,12.43,7.37
	c7.6,4.35,15.24,8.63,22.86,12.94c0.51,0.29,1.01,0.57,1.45,1.36c-1.43,0-2.86,0-4.29,0c-1.84,0-3.68-0.06-5.52,0.02
	c-4.94,0.22-8.58,3.33-9.62,8.17c-0.09,0.41-0.13,0.83-0.23,1.52c-0.39-0.41-0.66-0.61-0.82-0.88c-2.78-4.84-7.16-7.31-12.47-8.31
	c-1.63-0.31-3.31-0.47-4.97-0.49c-6.4-0.06-12.8-0.07-19.2,0.01c-1.92,0.02-3.86,0.23-5.74,0.61c-1.79,0.36-3.51,1.05-5.45,1.66
	c-2.54-2.05-5.7-2.37-9.02-2.33c-7.27,0.08-14.55-0.01-21.83,0.05c-2,0.02-4,0.32-6,0.5c-0.34,0.03-0.71,0.23-1.02,0.14
	c-4.93-1.3-9.95-0.51-14.92-0.62c-2.42-0.05-4.86,0.39-7.29,0.6c-0.34,0.03-0.71,0.14-1.01,0.03c-3.16-1.08-6.43-0.59-9.66-0.67
	c-2.63-0.06-5.26,0.03-7.89-0.02c-3.85-0.08-7.03,1.19-9.34,4.37c-0.14,0.2-0.37,0.34-0.7,0.63c-1.7-2.35-3.73-4.53-6.66-4.63
	c-6.64-0.22-13.3-0.3-19.93,0.04c-3.35,0.17-5.65,2.58-7,5.68c-0.27,0.62-0.5,1.27-0.83,2.13c-0.31-0.36-0.57-0.57-0.7-0.84
	c-1.39-2.82-3.48-5.01-5.99-6.86c-7.82-5.78-15.52-11.74-23.47-17.34c-7.46-5.26-12.67-12.26-16.77-20.23
	c-2.56-4.97-3.67-10.23-2.48-15.78c1.08-5.04,4.05-8.86,8.11-11.89c5.9-4.4,12.68-6.63,19.81-7.94c2.67-0.48,5.37-0.76,8.05-1.17
	c0.41-0.06,0.79-0.29,1.19-0.44H651.36z"/>
<path class="st0" d="M1085.27,540.72v-18.53h15.12v51.36c-4.99,0.01-9.93,0.01-15.12,0c-2.43-6.52-4.86-13.01-7.28-19.5
	c-0.18,0.03-0.35,0.07-0.53,0.1v19.38c-2.48,0.01-4.72,0.03-6.96,0.03c-2.18,0.01-4.37,0-6.73,0v-51.44h14
	c2.27,6.17,4.58,12.45,6.89,18.74C1084.87,540.81,1085.08,540.76,1085.27,540.72"/>
<path class="st0" d="M1265.39,573.46h-14.58c-0.51-1.92-0.68-47.46-0.17-51.31c0.53-0.05,1.11-0.15,1.69-0.15
	c8.93-0.01,17.87-0.06,26.8,0.04c1.8,0.02,3.66,0.41,5.38,0.96c2.59,0.84,3.99,2.8,4,5.56c0.04,7.88,0.04,15.76,0,23.65
	c-0.01,2.18-1.23,3.67-3.44,4.43c-0.9,0.31-1.84,0.49-2.99,0.79c2.48,5.3,4.92,10.5,7.47,15.94h-15.3c-0.61-1.34-1.3-2.84-1.96-4.35
	c-1.51-3.45-3.01-6.9-4.48-10.36c-0.41-0.96-0.85-1.77-2.4-1.21V573.46z M1265.46,548.84c2.89-0.24,5.56,0.27,8.24-0.33v-17.17
	c-2.76-0.58-5.42-0.29-8.24-0.21V548.84z"/>
<path class="st0" d="M825.42,573.36v-51.23c0.78-0.05,1.46-0.14,2.13-0.14c8.93-0.01,17.86-0.03,26.8,0.02
	c1.38,0.01,2.81,0.18,4.14,0.54c3.09,0.84,4.49,2.71,4.54,5.91c0.05,3.59,0.01,7.18,0.01,10.77c0,8.32,0,16.64,0,24.96
	c0,0.96-0.01,1.93-0.08,2.89c-0.21,2.85-1.7,4.76-4.42,5.56c-1.5,0.44-3.08,0.83-4.62,0.84c-9.19,0.08-18.39,0.05-27.58,0.04
	C826.08,573.54,825.82,573.44,825.42,573.36 M847.98,564.36c0.6-3.61,0.43-31.17-0.21-33.16h-7.59v33.16H847.98z"/>
<path class="st0" d="M806.58,547.57c0,6.05,0.01,12.1,0,18.15c-0.01,4.15-1.72,6.37-5.72,7.3c-1.44,0.33-2.94,0.5-4.42,0.51
	c-6.05,0.06-12.1,0.08-18.15-0.01c-1.73-0.02-3.51-0.26-5.17-0.73c-3.3-0.95-4.88-3.15-4.93-6.6c-0.05-3.94-0.02-7.89-0.02-11.83
	c0-8.24-0.01-16.48,0-24.72c0.01-4.28,1.56-6.24,5.74-7.19c1.19-0.27,2.42-0.42,3.64-0.43c6.58-0.04,13.15-0.07,19.72,0.01
	c1.64,0.02,3.33,0.29,4.9,0.78c3.05,0.95,4.38,2.9,4.39,6.08C806.6,535.12,806.58,541.34,806.58,547.57 M791.18,564.33
	c0.6-3.85,0.41-31.18-0.22-33.1h-7.37c-0.6,2.52-0.57,30.84,0.04,33.1H791.18z"/>
<path class="st0" d="M687.01,522.11h14.89c0.04,1.03,0.13,1.96,0.13,2.9c0.01,11.92,0.01,23.85,0.01,35.77
	c0,0.7,0.02,1.41,0.01,2.11c-0.01,1.08,0.51,1.63,1.59,1.63c1.58,0,3.16-0.01,4.73,0c1.07,0.01,1.63-0.5,1.64-1.58
	c0.01-0.7,0.02-1.4,0.02-2.1c0-11.84,0-23.67,0-35.51v-3.19h15.15v2.96v39.19c0,0.09,0,0.17,0,0.26c0.26,5.99-2.02,8.18-7.93,8.86
	c-2.51,0.29-5.08,0.14-7.62,0.15c-4.21,0.02-8.42,0.11-12.62-0.04c-1.99-0.07-4.01-0.44-5.92-1c-2.39-0.7-3.73-2.51-4.02-5.01
	c-0.11-0.96-0.18-1.92-0.18-2.89c-0.01-13.33-0.01-26.65,0-39.98C686.88,523.85,686.96,523.08,687.01,522.11"/>
<path class="st0" d="M1354.47,564.02h7.68v-20.21c4.89-0.17,9.49-0.06,14.05-0.08c0.7,1.93,0.95,23.98,0.37,29.58
	c-0.52,0.08-1.09,0.22-1.66,0.22c-8.59,0.02-17.17,0.07-25.76-0.04c-1.89-0.02-3.83-0.45-5.65-1c-2.39-0.72-3.72-2.52-4.01-5.03
	c-0.11-0.96-0.18-1.92-0.18-2.88c-0.01-11.65-0.02-23.31,0-34.96c0-0.96,0.04-1.93,0.23-2.87c0.38-1.99,1.71-3.25,3.54-3.9
	c1.22-0.43,2.54-0.81,3.81-0.83c7.1-0.08,14.19-0.04,21.29-0.03c0.33,0,0.67,0.1,1.14,0.17c0.8,3.05,1.6,6.06,2.45,9.33
	c-5.91,0.33-11.58-0.14-17.3,0.29V564.02z"/>
<path class="st0" d="M1177.67,531.66v32.25h7.73c0.11-3.2,0.04-6.49,0.05-9.78c0.01-3.33,0-6.65,0-9.92
	c2.08-0.59,11.53-0.68,14.35-0.13v29.48h-2.69c-7.89,0-15.77,0.04-23.65-0.03c-1.83-0.01-3.69-0.19-5.47-0.57
	c-3.42-0.74-5.04-2.71-5.38-6.22c-0.08-0.87-0.09-1.75-0.09-2.62c-0.01-11.39,0-22.78,0-34.17c0-0.7,0-1.4,0.05-2.1
	c0.16-2.44,1.42-4.13,3.68-4.96c1.22-0.44,2.53-0.83,3.81-0.85c7.18-0.08,14.37-0.04,21.55-0.03c0.25,0,0.5,0.11,0.93,0.22
	c0.78,2.97,1.58,5.98,2.49,9.43H1177.67z"/>
<path class="st0" d="M1143.91,573.55h-11.15c-5.17,0-10.34,0.09-15.51-0.04c-2.07-0.05-4.18-0.41-6.18-0.97
	c-2.51-0.7-3.89-2.57-4.16-5.19c-0.1-0.96-0.16-1.92-0.17-2.88c-0.01-11.56,0.08-23.13-0.05-34.69c-0.05-4.52,1.52-7.37,6.97-7.65
	c7.59-0.38,15.22-0.09,23.04-0.09c0.82,3.08,1.63,6.09,2.54,9.5c-5.87,0.2-11.51-0.04-17.03,0.14c-0.56,2.19-0.69,28.9-0.18,32.28
	c2.4,0.29,4.87,0.2,7.64,0.04v-20.11h14.08C1144.31,545.83,1144.46,569.8,1143.91,573.55"/>
<path class="st0" d="M1335.4,573.43h-14.9c-0.47-2.03-0.91-3.97-1.39-6.06h-9.95c-0.45,1.92-0.93,3.92-1.43,6.04h-14.89
	c4.45-17.15,8.86-34.17,13.3-51.28h15.96C1326.52,539.18,1330.93,556.19,1335.4,573.43 M1314.45,542.49
	c-0.19-0.01-0.37-0.02-0.56-0.04c-0.97,5.42-2.24,10.8-2.97,16.31h6.54C1316.43,553.23,1315.44,547.86,1314.45,542.49"/>
<path class="st0" d="M682.72,573.46h-14.89c-0.45-1.98-0.9-3.91-1.39-6.05h-9.99c-0.46,1.96-0.93,3.98-1.42,6.06h-14.88
	c4.47-17.23,8.89-34.3,13.32-51.39h15.93C673.82,539.15,678.25,556.22,682.72,573.46 M664.76,558.76
	c-1.02-5.56-2.01-10.9-2.99-16.25c-0.19-0.01-0.38-0.01-0.57-0.02c-1.02,5.36-2.05,10.72-3.11,16.27H664.76z"/>
<path class="st0" d="M1246.22,573.46h-14.89c-0.46-1.99-0.9-3.93-1.39-6.07h-9.99c-0.47,1.99-0.95,4.01-1.43,6.07h-14.88
	c4.47-17.23,8.89-34.3,13.32-51.39h15.94C1237.33,539.16,1241.76,556.23,1246.22,573.46 M1228.26,558.75
	c-1.02-5.54-2-10.9-2.99-16.25c-0.18-0.01-0.37-0.02-0.56-0.03c-1.03,5.36-2.05,10.72-3.12,16.28H1228.26z"/>
<path class="st0" d="M983.15,573.46h-14.89c-0.46-1.99-0.9-3.93-1.39-6.06h-9.99c-0.47,1.98-0.94,4-1.43,6.07h-14.88
	c4.47-17.24,8.89-34.3,13.32-51.39h15.93C974.26,539.16,978.68,556.23,983.15,573.46 M962.2,542.48c-1.71,5.32-2.66,10.74-3.6,16.31
	h6.57C964.16,553.23,963.18,547.85,962.2,542.48"/>
<path class="st0" d="M1382.7,522.11h28.61c0.82,3.08,1.62,6.09,2.51,9.44h-15.52c-0.72,2.14-0.82,9.05-0.2,12.19h11.74v8.96h-12.04
	c-0.14,3.85-0.12,7.37-0.02,11.2h15.44c-0.88,3.36-1.67,6.37-2.49,9.5h-27.87C1382.35,571.54,1382.19,526.14,1382.7,522.11"/>
<path class="st0" d="M884.56,531.57v11.97c3.9,0.48,7.82-0.04,11.88,0.31v8.95h-11.85v11.06h15.38c-0.89,3.41-1.68,6.41-2.5,9.54
	h-27.85c-0.53-1.78-0.74-46.8-0.2-51.24h28.66c0.79,3.02,1.59,6.04,2.48,9.4H884.56z"/>
<path class="st0" d="M907.57,522.07h27.48c1.17,3.06,2.33,6.13,3.63,9.53h-9.8c-0.3,7.09-0.1,13.97-0.13,20.84
	c-0.04,6.92-0.01,13.83-0.01,20.93h-15.05v-41.73h-9.97C905.12,528.14,906.35,525.08,907.57,522.07"/>
<path class="st0" d="M738.92,573.41v-41.75h-9.87c1.36-3.42,2.58-6.46,3.81-9.55h27.51c1.12,2.93,2.29,5.99,3.63,9.47h-9.89v41.84
	H738.92z"/>
<path class="st0" d="M1008.27,522.14h15v41.74h14.99c-0.9,3.41-1.69,6.41-2.51,9.53h-27.49V522.14z"/>
<path class="st0" d="M1002.01,573.45h-14.25c-0.56-1.94-0.66-48.7-0.1-51.38h14.12C1002.33,523.96,1002.55,568.27,1002.01,573.45"/>
<path class="st0" d="M1057.53,521.99v51.41h-14.56v-51.37c2.4-0.01,4.81-0.03,7.22-0.03
	C1052.55,521.99,1054.91,521.99,1057.53,521.99"/>
<path class="st0" d="M1331.12,771.81c-2.11,4.52-4.33,9.3-5.52,14.45c-1.49,6.44,1.15,9.78,7.8,9.85
	c13.85,0.14,26.87-3.35,39.29-9.27c8.12-3.88,15.65-8.69,22-15.11c2.64-2.66,4.8-5.79,7.17-8.71c0.32-0.4,0.6-0.83,1.09-1.5
	c2.54,3.21,4.97,6.26,7.51,9.46c-0.88,1.52-1.65,2.99-2.55,4.36c-3.1,4.73-6.84,8.91-11.21,12.48
	c-9.34,7.64-19.45,14.04-30.55,18.84c-9.87,4.27-20.23,6.26-30.9,6.7c-8.59,0.35-17.18,0.14-25.73-0.9
	c-3.5-0.43-6.9-1.28-10.08-2.82c-5.79-2.79-8.97-7.39-9.37-13.84c-0.09-1.45-0.01-2.92-0.01-5.02c-1.27,0.92-2.02,1.46-2.77,2
	c-12.04,8.72-25.15,15.22-39.6,18.89c-4.94,1.25-9.98,2.05-15.09,1.74c-2.25-0.14-4.56-0.49-6.69-1.21
	c-6.59-2.21-10.38-8.2-9.61-15.44c0.32-3.01,1.01-6.1,2.18-8.89c4.24-10.09,8.68-20.1,13.18-30.07c3.36-7.43,7.01-14.71,10.38-22.13
	c0.93-2.05,1.51-4.3,1.89-6.52c0.45-2.7-0.84-3.98-3.57-3.83c-4.12,0.23-7.12,2.16-8.82,6.01c-3.1,7.06-6.23,14.1-9.34,21.16
	c-8.46,19.16-16.92,38.31-25.38,57.47c-0.25,0.56-0.41,1.21-0.8,1.65c-0.41,0.47-1.01,0.79-1.59,1.06
	c-0.29,0.14-0.69,0.03-1.04,0.03c-12.01,0-24.03,0-36.04,0c-0.6,0-1.19-0.08-2.22-0.15c2.38-6,5.17-11.57,7.76-17.92
	c-1.31,0.8-2.1,1.27-2.88,1.77c-11.32,7.2-23.31,12.86-36.47,15.76c-5.23,1.15-10.53,1.88-15.91,0.9
	c-8.77-1.59-13.6-7.51-13.34-16.41c0.04-1.21,0.17-2.43,0.29-4.01c-4.85,2.22-9.61,4.11-14.73,4.79
	c-5.06,0.67-10.12,0.62-15.23-0.13c0,1.65,0.08,3.28-0.02,4.89c-0.33,5.58-1.91,10.86-4.17,15.94c-2.32,5.2-4.79,10.33-7.02,15.57
	c-5.2,12.24-14.45,19.53-27.22,22.55c-9.23,2.18-18.55,2.62-27.92,0.91c-3.48-0.63-6.79-1.76-9.62-3.98
	c-4.15-3.24-6.04-7.62-6.32-12.77c-0.33-5.91,1.16-11.5,3.45-16.86c3.4-7.98,7.01-15.87,10.53-23.8c0.63-1.41,1.23-2.84,1.51-4.52
	c-0.78,0.48-1.56,0.95-2.32,1.44c-9.91,6.43-20.34,11.7-31.94,14.37c-7.47,1.72-15.05,2.53-22.69,2.38
	c-6.83-0.13-13.66-0.55-20.47-1.02c-3.51-0.24-6.89-1.25-10.08-2.79c-5.16-2.5-8.41-6.47-9.18-12.28c-0.1-0.75-0.33-1.48-0.54-2.42
	c-0.98,0.63-1.79,1.13-2.58,1.65c-10.85,7.13-22.4,12.68-35.12,15.56c-5.5,1.24-11.06,1.88-16.69,0.85
	c-3.24-0.59-6.23-1.77-8.77-3.92c-3.42-2.87-5.2-6.5-5.19-11.02c0.01-5.07,0.91-9.99,2.98-14.58c2.56-5.66,5.32-11.24,8.23-16.73
	c3.65-6.9,7.24-13.81,9.62-21.28c1.31-4.13,1.99-8.33,1.95-12.67c-0.03-3.73-1.77-6.34-4.96-8.05c-3.61-1.94-7.59-2.63-11.57-3.27
	c-1.38-0.22-2.78-0.32-4.5-0.52c-13.57,30.52-27.15,61.06-40.73,91.61h-41.94c0.38-0.99,0.65-1.78,0.99-2.54
	c22.01-49.66,44.03-99.32,66.03-148.98c0.81-1.84,1.63-3.7,2.18-5.62c0.84-2.95-0.26-5.08-3.2-5.91c-1.99-0.56-4.13-0.63-6.21-0.84
	c-1.65-0.16-3.34-0.08-4.98-0.32c-3.35-0.5-5.05-2.48-5.26-5.87c-0.26-4.14,2.15-7.9,6.34-9.28c2.48-0.81,5.11-1.4,7.7-1.55
	c10.87-0.63,21.73-0.5,32.48,1.64c5.6,1.11,10.8,3.02,14.47,7.66c2.56-1.47,4.93-2.96,7.4-4.23c6.01-3.08,12.48-4.6,19.19-5
	c8.49-0.51,17-1.02,25.35,1.27c1.51,0.42,3.01,0.95,4.44,1.59c6.23,2.79,9.53,7.74,10.4,14.42c0.9,6.97-0.37,13.62-3.04,20.04
	c-4.93,11.82-12.7,21.54-22.37,29.79c-6.98,5.96-14.57,10.94-23.34,13.91c-1.8,0.61-3.65,1.09-6.02,1.79
	c0.93,0.31,1.36,0.46,1.8,0.59c3.6,1.09,7.28,1.94,10.77,3.31c6.65,2.62,9.92,7.44,8.76,16.02c-0.52,3.86-1.66,7.74-3.17,11.34
	c-2.49,5.97-5.48,11.74-8.3,17.58c-2.06,4.26-4.28,8.44-6.22,12.75c-0.89,1.97-1.47,4.14-1.87,6.27c-0.58,3.09,0.8,4.81,3.97,4.7
	c2.32-0.08,4.73-0.51,6.89-1.34c6.62-2.52,12.37-6.55,17.7-11.16c0.62-0.54,1.03-1.39,1.38-2.17c4.54-10.25,8.98-20.55,13.63-30.75
	c1.55-3.42,3.51-6.67,5.51-9.86c7.2-11.5,17.65-18.33,30.89-20.8c12.15-2.27,24.41-2.52,36.63-0.59c2.99,0.47,5.96,1.46,8.75,2.66
	c4.15,1.77,6.39,5.26,6.55,9.71c0.36,10.1-1.49,19.69-7.16,28.32c-3.32,5.06-7.71,8.78-13.16,11.35
	c-6.55,3.08-13.46,4.94-20.54,6.29c-7.5,1.43-15.08,2.22-22.7,2.63c-0.98,0.05-1.85,0.02-2.35,1.18c-2.03,4.75-4.31,9.41-5.27,14.54
	c-1.04,5.56,1.28,8.76,6.93,8.93c3.93,0.12,7.91-0.02,11.8-0.57c17.1-2.42,32.56-8.83,46.04-19.71c2.45-1.98,4.69-4.22,6.87-6.5
	c2.62-2.73,4.6-5.89,6.16-9.4c14.94-33.63,29.96-67.22,44.97-100.82c3.31-7.4,7.77-13.92,14.48-18.68
	c5.54-3.94,11.86-5.96,18.42-7.31c7.95-1.64,16-2,24.08-1.55c2.51,0.14,5.06,0.65,7.46,1.39c8.75,2.68,12.53,9.13,10.52,18.03
	c-0.63,2.8-1.52,5.6-2.69,8.22c-10.05,22.57-20.12,45.13-30.32,67.63c-5.64,12.44-13.67,23.23-23.49,32.7
	c-3.61,3.48-7.63,6.41-12.12,8.5c0.55,8.69,8.11,14.67,16.37,13.09c7.95-1.52,14.49-5.59,20.01-11.37c3.28-3.45,5.9-7.33,7.84-11.74
	c7.53-17.07,15.18-34.1,22.79-51.14c0.32-0.71,0.68-1.41,1.16-2.42c10.2,5.58,20.29,11.11,30.52,16.7
	c-0.38,0.96-0.67,1.77-1.02,2.56c-7.92,17.86-15.85,35.72-23.76,53.58c-0.74,1.67-1.48,3.39-1.88,5.17
	c-0.69,3.06,0.73,4.74,3.85,4.76c2.86,0.03,5.53-0.84,8.11-1.97c7.8-3.41,14.6-8.29,20.74-14.15c3.91-3.73,6.92-8,9.09-13.04
	c7.3-16.89,14.87-33.66,22.34-50.47c0.43-0.96,0.87-1.9,1.44-3.14c8.53,4.45,16.94,8.84,25.36,13.24c0.47-0.35,0.84-0.59,1.16-0.88
	c4.09-3.57,8.91-5.51,14.23-6.28c5.9-0.85,11.84-1.4,17.82-1.16c1.82,0.07,3.68,0.28,5.46,0.72c7.4,1.83,12.01,7.73,12.44,15.68
	c0.23,4.27-0.61,8.37-1.85,12.41c-2.58,8.4-6.26,16.35-9.88,24.34c-2.53,5.58-5.03,11.19-7.49,16.8c-0.46,1.04-0.8,2.14-1.02,3.25
	c-0.54,2.72,0.78,4.53,3.57,4.6c1.72,0.04,3.48-0.3,5.17-0.7c1.44-0.34,2.83-0.93,4.18-1.57c8.84-4.15,16.52-9.88,23.09-17.1
	c1.72-1.9,3.08-4,4.13-6.36c3.3-7.45,6.64-14.88,10.13-22.24c1.27-2.68,2.89-5.21,4.49-7.72c7.26-11.36,17.71-18.02,30.85-20.44
	c12.07-2.23,24.23-2.43,36.38-0.58c2.49,0.38,4.94,1.15,7.32,2c5.3,1.9,8.11,5.88,8.14,11.4c0.04,9.42-1.66,18.47-6.82,26.62
	c-3.43,5.42-8,9.43-13.81,12.13c-7.46,3.46-15.33,5.51-23.41,6.7C1345.71,770.28,1338.64,770.94,1331.12,771.81 M1059.1,750.32
	c3.21-1.31,5.46-3.18,7.61-5.18c5.62-5.22,9.61-11.59,12.72-18.5c10.45-23.13,20.79-46.31,31.17-69.47
	c0.35-0.79,0.65-1.64,0.78-2.49c0.29-1.97-0.42-2.97-2.32-3.48c-2.43-0.66-5,0.17-6.53,2.25c-0.62,0.84-1.07,1.8-1.5,2.75
	c-13.64,30.52-27.28,61.05-40.91,91.58C1059.81,748.47,1059.55,749.18,1059.1,750.32 M838.9,710.35c0.68-0.04,1.11,0,1.5-0.1
	c10.99-2.89,21.07-7.58,29.83-14.92c6.29-5.27,11.21-11.57,14.34-19.19c2.57-6.27,3.7-12.79,3.08-19.54
	c-0.47-5.12-3.9-8.25-9.06-8.42c-5.48-0.18-9.92,2.24-13.35,6.24c-2.02,2.35-3.66,5.15-4.96,7.99
	c-6.86,15.07-13.56,30.21-20.3,45.33C839.62,708.51,839.32,709.31,838.9,710.35 M1043.21,785.64c-0.24,0.39-0.46,0.65-0.59,0.96
	c-6.8,15.16-13.6,30.33-20.37,45.51c-0.45,1.02-0.78,2.15-0.93,3.26c-0.24,1.78,0.5,2.63,2.29,2.77c0.69,0.05,1.4-0.02,2.08-0.14
	c3.23-0.59,5.17-2.7,6.46-5.58c3.23-7.18,6.55-14.32,9.7-21.53c1.29-2.95,2.38-6.02,3.35-9.1c1.11-3.52,1.65-7.16,1.32-10.88
	C1046.34,788.65,1045.6,786.67,1043.21,785.64 M1336.64,758.32c1.08-0.09,1.86-0.06,2.6-0.22c15.77-3.39,22.56-17.13,22.5-28.23
	c-0.01-2.15-0.68-2.97-2.85-3.4c-3.2-0.65-5.98,0.29-7.98,2.81c-1.4,1.76-2.54,3.77-3.53,5.81c-3.34,6.93-6.57,13.92-9.83,20.89
	C1337.25,756.64,1337.02,757.36,1336.64,758.32 M947.49,758.27c0.75,0,1.09,0.04,1.43-0.01c13.91-2.06,23.72-14.2,23.8-28.73
	c0.01-1.66-0.79-2.53-2.45-2.96c-3.39-0.88-6.33,0.05-8.46,2.74c-1.45,1.83-2.62,3.93-3.64,6.05c-3.3,6.86-6.48,13.78-9.7,20.67
	C948.17,756.66,947.91,757.29,947.49,758.27"/>
<path class="st0" d="M1234.37,738.52c0.23-0.46,0.46-0.92,0.69-1.38c0.09,0.04,0.17,0.08,0.26,0.12c-0.2,0.5-0.41,1-0.61,1.5
	C1234.6,738.68,1234.49,738.6,1234.37,738.52"/>
<path class="st0" d="M1160.68,690.06c-5.34,0.1-9.52-0.63-13.34-2.88c-4.34-2.56-5.75-6.41-4.17-11.23
	c0.93-2.82,2.59-5.19,4.76-7.14c8.39-7.57,18.2-10.98,29.47-9.4c2.36,0.33,4.72,1.37,6.84,2.52c4.37,2.38,5.83,5.94,4.53,11.4
	c-0.76,3.19-2.8,5.61-5.18,7.74c-4.98,4.44-10.97,6.79-17.38,8.18C1164.08,689.72,1161.89,689.89,1160.68,690.06"/>
<path class="st0" d="M848.84,701.44c0.48-1.14,0.8-1.94,1.15-2.72c5-11.2,9.96-22.41,15.02-33.58c1.01-2.22,2.25-4.36,3.63-6.37
	c1.69-2.45,4.17-3.96,7.01-4.82c4.32-1.3,6.67,0.36,6.71,4.85c0.12,11.92-4.57,21.78-13.01,29.97c-5.6,5.44-12.18,9.41-19.32,12.48
	C849.82,701.34,849.54,701.33,848.84,701.44 M865.13,682.25c0.16,0.08,0.31,0.17,0.47,0.25c3.93-4.09,6.84-8.8,8.53-14.52
	c-0.79-0.3-1.46-0.56-2.25-0.86C869.56,672.3,867.34,677.28,865.13,682.25"/>
<path class="st0" d="M1347.58,747.88c2.57-5.22,4.2-10.84,7.97-15.77C1356.41,736.88,1352.49,744.54,1347.58,747.88"/>
<path class="st0" d="M958.05,748.29c3-5.67,4.69-11.34,8.49-16.29C967.47,736.64,963.14,745.05,958.05,748.29"/>
<text transform="matrix(1 0 0 1 307.7271 364.2119)" class="st1 st2 st3">カーコーティング専門店</text>
</svg>
